<?xml version="1.0" encoding="UTF-8" standalone="no"?>
<svg width="13px" height="13px" viewBox="0 0 13 13" version="1.1" xmlns="http://www.w3.org/2000/svg" xmlns:xlink="http://www.w3.org/1999/xlink" xmlns:sketch="http://www.bohemiancoding.com/sketch/ns">
    <!-- Generator: sketchtool 3.4 (375) - http://www.bohemiancoding.com/sketch -->
    <title>Imported Layers</title>
    <desc>Created with sketchtool.</desc>
    <defs></defs>
    <g id="Page-1" stroke="none" stroke-width="1" fill="none" fill-rule="evenodd" sketch:type="MSPage">
        <g id="Assets-file" sketch:type="MSArtboardGroup" transform="translate(-231.000000, -139.000000)" fill-opacity="0.56" fill="#233151">
            <path d="M241.583882,140.192972 L239.985395,140.192972 L239.985395,139.537751 C239.985395,139.240161 239.749342,139 239.456842,139 C239.164342,139 238.928289,139.240161 238.928289,139.537751 L238.928289,140.192972 L235.079605,140.192972 L235.079605,139.537751 C235.079605,139.240161 234.843553,139 234.551053,139 C234.258553,139 234.0225,139.240161 234.0225,139.537751 L234.0225,140.192972 L232.575395,140.192972 C231.705592,140.192972 231,140.910843 231,141.795783 L231,150.389357 C231,151.274297 231.705592,151.992169 232.575395,151.992169 L241.583882,151.992169 C242.453684,151.992169 243.159276,151.274297 243.159276,150.389357 L243.159276,141.795783 C243.159276,140.913454 242.451118,140.192972 241.583882,140.192972 L241.583882,140.192972 Z M232.572829,141.271084 L234.019934,141.271084 L234.019934,141.868876 C234.019934,142.166466 234.255987,142.406627 234.548487,142.406627 C234.840987,142.406627 235.077039,142.166466 235.077039,141.868876 L235.077039,141.271084 L238.923158,141.271084 L238.923158,141.868876 C238.923158,142.166466 239.159211,142.406627 239.451711,142.406627 C239.744211,142.406627 239.980263,142.166466 239.980263,141.868876 L239.980263,141.271084 L241.57875,141.271084 C241.863553,141.271084 242.094474,141.506024 242.094474,141.795783 L242.094474,143.521285 L232.057105,143.521285 L232.057105,141.795783 C232.057105,141.506024 232.288026,141.271084 232.572829,141.271084 L232.572829,141.271084 Z M241.583882,150.916667 L232.572829,150.916667 C232.288026,150.916667 232.057105,150.681727 232.057105,150.391968 L232.057105,144.599398 L242.099605,144.599398 L242.099605,150.391968 C242.099605,150.681727 241.868684,150.916667 241.583882,150.916667 L241.583882,150.916667 Z" id="Imported-Layers" sketch:type="MSShapeGroup"></path>
        </g>
    </g>
</svg>